<svg xmlns="http://www.w3.org/2000/svg" xmlns:xlink="http://www.w3.org/1999/xlink" width="936.1" height="725.2" font-family="Consolas, Menlo, 'Bitstream Vera Sans Mono', monospace, 'Powerline Symbols'" font-size="14"><style>.default-text-fill{fill:#ccc}.default-bg-fill{fill:#121314}.c-0{fill:#000}.c-4{fill:#26b0d7}.c-7{fill:#d9d9d9}.c-12{fill:#26b0d7}.c-15{fill:#fff}.br,.c-12,.c-15{font-weight:700}</style><rect width="100%" height="100%" class="default-bg-fill" rx="4" ry="4"/><svg x=".901%" y="1.351%" class="default-text-fill"><g style="shape-rendering:optimizeSpeed"><rect width="98.198%" height="19.7" x="0%" y="0%" class="c-4"/><rect width="98.198%" height="19.7" x="0%" y="2.703%" class="c-4"/><rect width="98.198%" height="19.7" x="0%" y="5.405%" class="c-4"/><rect width="98.198%" height="19.7" x="0%" y="8.108%" class="c-4"/><rect width="98.198%" height="19.7" x="0%" y="10.811%" class="c-4"/><rect width="98.198%" height="19.7" x="0%" y="13.514%" class="c-4"/><rect width="98.198%" height="19.7" x="0%" y="16.216%" class="c-4"/><rect width="98.198%" height="19.7" x="0%" y="18.919%" class="c-4"/><rect width="98.198%" height="19.7" x="0%" y="21.622%" class="c-4"/><rect width="98.198%" height="19.7" x="0%" y="24.324%" class="c-4"/><rect width="98.198%" height="19.7" x="0%" y="27.027%" class="c-4"/><rect width="98.198%" height="19.7" x="0%" y="29.73%" class="c-4"/><rect width="16.216%" height="19.7" x="0%" y="32.432%" class="c-4"/><rect width="23.423%" height="19.7" x="16.216%" y="32.432%" class="c-7"/><rect width="13.514%" height="19.7" x="39.64%" y="32.432%" class="c-7"/><rect width="25.225%" height="19.7" x="53.153%" y="32.432%" class="c-7"/><rect width=".901%" height="19.7" x="78.378%" y="32.432%" class="c-7"/><rect width="18.919%" height="19.7" x="79.279%" y="32.432%" class="c-4"/><rect width="16.216%" height="19.7" x="0%" y="35.135%" class="c-4"/><rect width=".901%" height="19.7" x="16.216%" y="35.135%" class="c-7"/><rect width="62.162%" height="19.7" x="17.117%" y="35.135%" class="c-7"/><rect width="1.802%" height="19.7" x="79.279%" y="35.135%" class="c-0"/><rect width="17.117%" height="19.7" x="81.081%" y="35.135%" class="c-4"/><rect width="16.216%" height="19.7" x="0%" y="37.838%" class="c-4"/><rect width=".901%" height="19.7" x="16.216%" y="37.838%" class="c-7"/><rect width="62.162%" height="19.7" x="17.117%" y="37.838%" class="c-7"/><rect width="1.802%" height="19.7" x="79.279%" y="37.838%" class="c-0"/><rect width="17.117%" height="19.7" x="81.081%" y="37.838%" class="c-4"/><rect width="16.216%" height="19.7" x="0%" y="40.541%" class="c-4"/><rect width=".901%" height="19.7" x="16.216%" y="40.541%" class="c-7"/><rect width="62.162%" height="19.7" x="17.117%" y="40.541%" class="c-7"/><rect width="1.802%" height="19.7" x="79.279%" y="40.541%" class="c-0"/><rect width="17.117%" height="19.7" x="81.081%" y="40.541%" class="c-4"/><rect width="16.216%" height="19.7" x="0%" y="43.243%" class="c-4"/><rect width=".901%" height="19.7" x="16.216%" y="43.243%" class="c-7"/><rect width="62.162%" height="19.7" x="17.117%" y="43.243%" class="c-7"/><rect width="1.802%" height="19.7" x="79.279%" y="43.243%" class="c-0"/><rect width="17.117%" height="19.7" x="81.081%" y="43.243%" class="c-4"/><rect width="16.216%" height="19.7" x="0%" y="45.946%" class="c-4"/><rect width=".901%" height="19.7" x="16.216%" y="45.946%" class="c-7"/><rect width="62.162%" height="19.7" x="17.117%" y="45.946%" class="c-7"/><rect width="1.802%" height="19.7" x="79.279%" y="45.946%" class="c-0"/><rect width="17.117%" height="19.7" x="81.081%" y="45.946%" class="c-4"/><rect width="16.216%" height="19.7" x="0%" y="48.649%" class="c-4"/><rect width=".901%" height="19.7" x="16.216%" y="48.649%" class="c-7"/><rect width="1.802%" height="19.7" x="17.117%" y="48.649%" class="c-7"/><rect width="56.757%" height="19.7" x="18.919%" y="48.649%" class="c-7"/><rect width="3.604%" height="19.7" x="75.676%" y="48.649%" class="c-7"/><rect width="1.802%" height="19.7" x="79.279%" y="48.649%" class="c-0"/><rect width="17.117%" height="19.7" x="81.081%" y="48.649%" class="c-4"/><rect width="16.216%" height="19.7" x="0%" y="51.351%" class="c-4"/><rect width=".901%" height="19.7" x="16.216%" y="51.351%" class="c-7"/><rect width="1.802%" height="19.7" x="17.117%" y="51.351%" class="c-7"/><rect width=".901%" height="19.7" x="18.919%" y="51.351%" class="c-7"/><rect width="10.811%" height="19.7" x="19.82%" y="51.351%" class="c-12"/><rect width="45.045%" height="19.7" x="30.631%" y="51.351%" class="c-7"/><rect width="3.604%" height="19.7" x="75.676%" y="51.351%" class="c-7"/><rect width="1.802%" height="19.7" x="79.279%" y="51.351%" class="c-0"/><rect width="17.117%" height="19.7" x="81.081%" y="51.351%" class="c-4"/><rect width="16.216%" height="19.7" x="0%" y="54.054%" class="c-4"/><rect width=".901%" height="19.7" x="16.216%" y="54.054%" class="c-7"/><rect width="1.802%" height="19.7" x="17.117%" y="54.054%" class="c-7"/><rect width=".901%" height="19.7" x="18.919%" y="54.054%" class="c-7"/><rect width="59.459%" height="19.7" x="19.82%" y="54.054%" class="c-7"/><rect width="1.802%" height="19.7" x="79.279%" y="54.054%" class="c-0"/><rect width="17.117%" height="19.7" x="81.081%" y="54.054%" class="c-4"/><rect width="16.216%" height="19.7" x="0%" y="56.757%" class="c-4"/><rect width=".901%" height="19.7" x="16.216%" y="56.757%" class="c-7"/><rect width="62.162%" height="19.7" x="17.117%" y="56.757%" class="c-7"/><rect width="1.802%" height="19.7" x="79.279%" y="56.757%" class="c-0"/><rect width="17.117%" height="19.7" x="81.081%" y="56.757%" class="c-4"/><rect width="18.018%" height="19.7" x="0%" y="59.459%" class="c-4"/><rect width="63.063%" height="19.7" x="18.018%" y="59.459%" class="c-0"/><rect width="17.117%" height="19.7" x="81.081%" y="59.459%" class="c-4"/><rect width="98.198%" height="19.7" x="0%" y="62.162%" class="c-4"/><rect width="98.198%" height="19.7" x="0%" y="64.865%" class="c-4"/><rect width="98.198%" height="19.7" x="0%" y="67.568%" class="c-4"/><rect width="98.198%" height="19.7" x="0%" y="70.27%" class="c-4"/><rect width="98.198%" height="19.7" x="0%" y="72.973%" class="c-4"/><rect width="98.198%" height="19.7" x="0%" y="75.676%" class="c-4"/><rect width="98.198%" height="19.7" x="0%" y="78.378%" class="c-4"/><rect width="98.198%" height="19.7" x="0%" y="81.081%" class="c-4"/><rect width="98.198%" height="19.7" x="0%" y="83.784%" class="c-4"/><rect width="98.198%" height="19.7" x="0%" y="86.486%" class="c-4"/><rect width="98.198%" height="19.7" x="0%" y="89.189%" class="c-4"/><rect width="98.198%" height="19.7" x="0%" y="91.892%" class="c-4"/><rect width="98.198%" height="19.7" x="0%" y="94.595%" class="c-4"/></g><text class="default-text-fill"><tspan y="8.108%"> </tspan> <tspan y="10.811%"> </tspan> <tspan y="13.514%"> </tspan> <tspan y="16.216%"> </tspan> <tspan y="18.919%"> </tspan> <tspan y="21.622%"> </tspan> <tspan y="24.324%"> </tspan> <tspan y="27.027%"> </tspan> <tspan y="29.73%"> </tspan> <tspan y="32.432%"> <tspan x="16.216%" class="br c-15" dy="1em">┌</tspan><tspan x="17.117%" class="br c-15">─</tspan><tspan x="18.018%" class="br c-15">─</tspan><tspan x="18.919%" class="br c-15">─</tspan><tspan x="19.82%" class="br c-15">─</tspan><tspan x="20.721%" class="br c-15">─</tspan><tspan x="21.622%" class="br c-15">─</tspan><tspan x="22.523%" class="br c-15">─</tspan><tspan x="23.423%" class="br c-15">─</tspan><tspan x="24.324%" class="br c-15">─</tspan><tspan x="25.225%" class="br c-15">─</tspan><tspan x="26.126%" class="br c-15">─</tspan><tspan x="27.027%" class="br c-15">─</tspan><tspan x="27.928%" class="br c-15">─</tspan><tspan x="28.829%" class="br c-15">─</tspan><tspan x="29.73%" class="br c-15">─</tspan><tspan x="30.631%" class="br c-15">─</tspan><tspan x="31.532%" class="br c-15">─</tspan><tspan x="32.432%" class="br c-15">─</tspan><tspan x="33.333%" class="br c-15">─</tspan><tspan x="34.234%" class="br c-15">─</tspan><tspan x="35.135%" class="br c-15">─</tspan><tspan x="36.036%" class="br c-15">─</tspan><tspan x="36.937%" class="br c-15">─</tspan><tspan x="37.838%" class="br c-15">─</tspan><tspan x="38.739%" class="br c-15">─</tspan><tspan x="39.64%" class="br c-12">t</tspan><tspan x="40.541%" class="br c-12">a</tspan><tspan x="41.441%" class="br c-12">l</tspan><tspan x="42.342%" class="br c-12">o</tspan><tspan x="43.243%" class="br c-12">s</tspan><tspan x="44.144%" class="br c-12">-</tspan><tspan x="45.045%" class="br c-12">b</tspan><tspan x="45.946%" class="br c-12">o</tspan><tspan x="46.847%" class="br c-12">o</tspan><tspan x="47.748%" class="br c-12">t</tspan><tspan x="48.649%" class="br c-12">s</tspan><tspan x="49.55%" class="br c-12">t</tspan><tspan x="50.45%" class="br c-12">r</tspan><tspan x="51.351%" class="br c-12">a</tspan><tspan x="52.252%" class="br c-12">p</tspan><tspan x="53.153%" class="br c-15">─</tspan><tspan x="54.054%" class="br c-15">─</tspan><tspan x="54.955%" class="br c-15">─</tspan><tspan x="55.856%" class="br c-15">─</tspan><tspan x="56.757%" class="br c-15">─</tspan><tspan x="57.658%" class="br c-15">─</tspan><tspan x="58.559%" class="br c-15">─</tspan><tspan x="59.459%" class="br c-15">─</tspan><tspan x="60.36%" class="br c-15">─</tspan><tspan x="61.261%" class="br c-15">─</tspan><tspan x="62.162%" class="br c-15">─</tspan><tspan x="63.063%" class="br c-15">─</tspan><tspan x="63.964%" class="br c-15">─</tspan><tspan x="64.865%" class="br c-15">─</tspan><tspan x="65.766%" class="br c-15">─</tspan><tspan x="66.667%" class="br c-15">─</tspan><tspan x="67.568%" class="br c-15">─</tspan><tspan x="68.468%" class="br c-15">─</tspan><tspan x="69.369%" class="br c-15">─</tspan><tspan x="70.27%" class="br c-15">─</tspan><tspan x="71.171%" class="br c-15">─</tspan><tspan x="72.072%" class="br c-15">─</tspan><tspan x="72.973%" class="br c-15">─</tspan><tspan x="73.874%" class="br c-15">─</tspan><tspan x="74.775%" class="br c-15">─</tspan><tspan x="75.676%" class="br c-15">─</tspan><tspan x="76.577%" class="br c-15">─</tspan><tspan x="77.477%" class="br c-15">─</tspan><tspan x="78.378%" class="c-0">┐</tspan> </tspan> <tspan y="35.135%"> <tspan x="16.216%" class="br c-15" dy="1em">│</tspan><tspan x="18.018%" class="c-0">I</tspan><tspan x="18.919%" class="c-0">n</tspan><tspan x="19.82%" class="c-0">s</tspan><tspan x="20.721%" class="c-0">t</tspan><tspan x="21.622%" class="c-0">a</tspan><tspan x="22.523%" class="c-0">l</tspan><tspan x="23.423%" class="c-0">l</tspan><tspan x="24.324%" class="c-0">i</tspan><tspan x="25.225%" class="c-0">n</tspan><tspan x="26.126%" class="c-0">g</tspan><tspan x="27.027%" class="c-0">.</tspan><tspan x="27.928%" class="c-0">.</tspan><tspan x="28.829%" class="c-0">.</tspan><tspan x="30.631%" class="c-0">(</tspan><tspan x="31.532%" class="c-0">p</tspan><tspan x="32.432%" class="c-0">o</tspan><tspan x="33.333%" class="c-0">r</tspan><tspan x="34.234%" class="c-0">t</tspan><tspan x="36.036%" class="c-0">i</tspan><tspan x="36.937%" class="c-0">s</tspan><tspan x="38.739%" class="c-0">o</tspan><tspan x="39.64%" class="c-0">p</tspan><tspan x="40.541%" class="c-0">e</tspan><tspan x="41.441%" class="c-0">n</tspan><tspan x="43.243%" class="c-0">a</tspan><tspan x="44.144%" class="c-0">t</tspan><tspan x="45.946%" class="c-0">1</tspan><tspan x="46.847%" class="c-0">9</tspan><tspan x="47.748%" class="c-0">2</tspan><tspan x="48.649%" class="c-0">.</tspan><tspan x="49.55%" class="c-0">1</tspan><tspan x="50.45%" class="c-0">6</tspan><tspan x="51.351%" class="c-0">8</tspan><tspan x="52.252%" class="c-0">.</tspan><tspan x="53.153%" class="c-0">1</tspan><tspan x="54.054%" class="c-0">0</tspan><tspan x="54.955%" class="c-0">0</tspan><tspan x="55.856%" class="c-0">.</tspan><tspan x="56.757%" class="c-0">1</tspan><tspan x="57.658%" class="c-0">1</tspan><tspan x="58.559%" class="c-0">2</tspan><tspan x="59.459%" class="c-0">)</tspan><tspan x="78.378%" class="c-0">│</tspan> </tspan> <tspan y="37.838%"> <tspan x="16.216%" class="br c-15" dy="1em">│</tspan><tspan x="78.378%" class="c-0">│</tspan> </tspan> <tspan y="40.541%"> <tspan x="16.216%" class="br c-15" dy="1em">│</tspan><tspan x="78.378%" class="c-0">│</tspan> </tspan> <tspan y="43.243%"> <tspan x="16.216%" class="br c-15" dy="1em">│</tspan><tspan x="78.378%" class="c-0">│</tspan> </tspan> <tspan y="45.946%"> <tspan x="16.216%" class="br c-15" dy="1em">│</tspan><tspan x="78.378%" class="c-0">│</tspan> </tspan> <tspan y="48.649%"> <tspan x="16.216%" class="br c-15" dy="1em">│</tspan><tspan x="18.919%" class="br c-15">┌</tspan><tspan x="19.82%" class="br c-15">─</tspan><tspan x="20.721%" class="br c-15">─</tspan><tspan x="21.622%" class="br c-15">─</tspan><tspan x="22.523%" class="br c-15">─</tspan><tspan x="23.423%" class="br c-15">─</tspan><tspan x="24.324%" class="br c-15">─</tspan><tspan x="25.225%" class="br c-15">─</tspan><tspan x="26.126%" class="br c-15">─</tspan><tspan x="27.027%" class="br c-15">─</tspan><tspan x="27.928%" class="br c-15">─</tspan><tspan x="28.829%" class="br c-15">─</tspan><tspan x="29.73%" class="br c-15">─</tspan><tspan x="30.631%" class="br c-15">─</tspan><tspan x="31.532%" class="br c-15">─</tspan><tspan x="32.432%" class="br c-15">─</tspan><tspan x="33.333%" class="br c-15">─</tspan><tspan x="34.234%" class="br c-15">─</tspan><tspan x="35.135%" class="br c-15">─</tspan><tspan x="36.036%" class="br c-15">─</tspan><tspan x="36.937%" class="br c-15">─</tspan><tspan x="37.838%" class="br c-15">─</tspan><tspan x="38.739%" class="br c-15">─</tspan><tspan x="39.64%" class="br c-15">─</tspan><tspan x="40.541%" class="br c-15">─</tspan><tspan x="41.441%" class="br c-15">─</tspan><tspan x="42.342%" class="br c-15">─</tspan><tspan x="43.243%" class="br c-15">─</tspan><tspan x="44.144%" class="br c-15">─</tspan><tspan x="45.045%" class="br c-15">─</tspan><tspan x="45.946%" class="br c-15">─</tspan><tspan x="46.847%" class="br c-15">─</tspan><tspan x="47.748%" class="br c-15">─</tspan><tspan x="48.649%" class="br c-15">─</tspan><tspan x="49.55%" class="br c-15">─</tspan><tspan x="50.45%" class="br c-15">─</tspan><tspan x="51.351%" class="br c-15">─</tspan><tspan x="52.252%" class="br c-15">─</tspan><tspan x="53.153%" class="br c-15">─</tspan><tspan x="54.054%" class="br c-15">─</tspan><tspan x="54.955%" class="br c-15">─</tspan><tspan x="55.856%" class="br c-15">─</tspan><tspan x="56.757%" class="br c-15">─</tspan><tspan x="57.658%" class="br c-15">─</tspan><tspan x="58.559%" class="br c-15">─</tspan><tspan x="59.459%" class="br c-15">─</tspan><tspan x="60.36%" class="br c-15">─</tspan><tspan x="61.261%" class="br c-15">─</tspan><tspan x="62.162%" class="br c-15">─</tspan><tspan x="63.063%" class="br c-15">─</tspan><tspan x="63.964%" class="br c-15">─</tspan><tspan x="64.865%" class="br c-15">─</tspan><tspan x="65.766%" class="br c-15">─</tspan><tspan x="66.667%" class="br c-15">─</tspan><tspan x="67.568%" class="br c-15">─</tspan><tspan x="68.468%" class="br c-15">─</tspan><tspan x="69.369%" class="br c-15">─</tspan><tspan x="70.27%" class="br c-15">─</tspan><tspan x="71.171%" class="br c-15">─</tspan><tspan x="72.072%" class="br c-15">─</tspan><tspan x="72.973%" class="br c-15">─</tspan><tspan x="73.874%" class="br c-15">─</tspan><tspan x="74.775%" class="br c-15">─</tspan><tspan x="75.676%" class="c-0">┐</tspan><tspan x="78.378%" class="c-0">│</tspan> </tspan> <tspan y="51.351%"> <tspan x="16.216%" class="br c-15" dy="1em">│</tspan><tspan x="18.919%" class="br c-15">│</tspan><tspan x="46.847%" class="br c-12">2</tspan><tspan x="47.748%" class="br c-12">0</tspan><tspan x="48.649%" class="br c-12">%</tspan><tspan x="75.676%" class="c-0">│</tspan><tspan x="78.378%" class="c-0">│</tspan> </tspan> <tspan y="54.054%"> <tspan x="16.216%" class="br c-15" dy="1em">│</tspan><tspan x="18.919%" class="br c-15">└</tspan><tspan x="19.82%" class="c-0">─</tspan><tspan x="20.721%" class="c-0">─</tspan><tspan x="21.622%" class="c-0">─</tspan><tspan x="22.523%" class="c-0">─</tspan><tspan x="23.423%" class="c-0">─</tspan><tspan x="24.324%" class="c-0">─</tspan><tspan x="25.225%" class="c-0">─</tspan><tspan x="26.126%" class="c-0">─</tspan><tspan x="27.027%" class="c-0">─</tspan><tspan x="27.928%" class="c-0">─</tspan><tspan x="28.829%" class="c-0">─</tspan><tspan x="29.73%" class="c-0">─</tspan><tspan x="30.631%" class="c-0">─</tspan><tspan x="31.532%" class="c-0">─</tspan><tspan x="32.432%" class="c-0">─</tspan><tspan x="33.333%" class="c-0">─</tspan><tspan x="34.234%" class="c-0">─</tspan><tspan x="35.135%" class="c-0">─</tspan><tspan x="36.036%" class="c-0">─</tspan><tspan x="36.937%" class="c-0">─</tspan><tspan x="37.838%" class="c-0">─</tspan><tspan x="38.739%" class="c-0">─</tspan><tspan x="39.64%" class="c-0">─</tspan><tspan x="40.541%" class="c-0">─</tspan><tspan x="41.441%" class="c-0">─</tspan><tspan x="42.342%" class="c-0">─</tspan><tspan x="43.243%" class="c-0">─</tspan><tspan x="44.144%" class="c-0">─</tspan><tspan x="45.045%" class="c-0">─</tspan><tspan x="45.946%" class="c-0">─</tspan><tspan x="46.847%" class="c-0">─</tspan><tspan x="47.748%" class="c-0">─</tspan><tspan x="48.649%" class="c-0">─</tspan><tspan x="49.55%" class="c-0">─</tspan><tspan x="50.45%" class="c-0">─</tspan><tspan x="51.351%" class="c-0">─</tspan><tspan x="52.252%" class="c-0">─</tspan><tspan x="53.153%" class="c-0">─</tspan><tspan x="54.054%" class="c-0">─</tspan><tspan x="54.955%" class="c-0">─</tspan><tspan x="55.856%" class="c-0">─</tspan><tspan x="56.757%" class="c-0">─</tspan><tspan x="57.658%" class="c-0">─</tspan><tspan x="58.559%" class="c-0">─</tspan><tspan x="59.459%" class="c-0">─</tspan><tspan x="60.36%" class="c-0">─</tspan><tspan x="61.261%" class="c-0">─</tspan><tspan x="62.162%" class="c-0">─</tspan><tspan x="63.063%" class="c-0">─</tspan><tspan x="63.964%" class="c-0">─</tspan><tspan x="64.865%" class="c-0">─</tspan><tspan x="65.766%" class="c-0">─</tspan><tspan x="66.667%" class="c-0">─</tspan><tspan x="67.568%" class="c-0">─</tspan><tspan x="68.468%" class="c-0">─</tspan><tspan x="69.369%" class="c-0">─</tspan><tspan x="70.27%" class="c-0">─</tspan><tspan x="71.171%" class="c-0">─</tspan><tspan x="72.072%" class="c-0">─</tspan><tspan x="72.973%" class="c-0">─</tspan><tspan x="73.874%" class="c-0">─</tspan><tspan x="74.775%" class="c-0">─</tspan><tspan x="75.676%" class="c-0">┘</tspan><tspan x="78.378%" class="c-0">│</tspan> </tspan> <tspan y="56.757%"> <tspan x="16.216%" class="br c-15" dy="1em">└</tspan><tspan x="17.117%" class="c-0">─</tspan><tspan x="18.018%" class="c-0">─</tspan><tspan x="18.919%" class="c-0">─</tspan><tspan x="19.82%" class="c-0">─</tspan><tspan x="20.721%" class="c-0">─</tspan><tspan x="21.622%" class="c-0">─</tspan><tspan x="22.523%" class="c-0">─</tspan><tspan x="23.423%" class="c-0">─</tspan><tspan x="24.324%" class="c-0">─</tspan><tspan x="25.225%" class="c-0">─</tspan><tspan x="26.126%" class="c-0">─</tspan><tspan x="27.027%" class="c-0">─</tspan><tspan x="27.928%" class="c-0">─</tspan><tspan x="28.829%" class="c-0">─</tspan><tspan x="29.73%" class="c-0">─</tspan><tspan x="30.631%" class="c-0">─</tspan><tspan x="31.532%" class="c-0">─</tspan><tspan x="32.432%" class="c-0">─</tspan><tspan x="33.333%" class="c-0">─</tspan><tspan x="34.234%" class="c-0">─</tspan><tspan x="35.135%" class="c-0">─</tspan><tspan x="36.036%" class="c-0">─</tspan><tspan x="36.937%" class="c-0">─</tspan><tspan x="37.838%" class="c-0">─</tspan><tspan x="38.739%" class="c-0">─</tspan><tspan x="39.64%" class="c-0">─</tspan><tspan x="40.541%" class="c-0">─</tspan><tspan x="41.441%" class="c-0">─</tspan><tspan x="42.342%" class="c-0">─</tspan><tspan x="43.243%" class="c-0">─</tspan><tspan x="44.144%" class="c-0">─</tspan><tspan x="45.045%" class="c-0">─</tspan><tspan x="45.946%" class="c-0">─</tspan><tspan x="46.847%" class="c-0">─</tspan><tspan x="47.748%" class="c-0">─</tspan><tspan x="48.649%" class="c-0">─</tspan><tspan x="49.55%" class="c-0">─</tspan><tspan x="50.45%" class="c-0">─</tspan><tspan x="51.351%" class="c-0">─</tspan><tspan x="52.252%" class="c-0">─</tspan><tspan x="53.153%" class="c-0">─</tspan><tspan x="54.054%" class="c-0">─</tspan><tspan x="54.955%" class="c-0">─</tspan><tspan x="55.856%" class="c-0">─</tspan><tspan x="56.757%" class="c-0">─</tspan><tspan x="57.658%" class="c-0">─</tspan><tspan x="58.559%" class="c-0">─</tspan><tspan x="59.459%" class="c-0">─</tspan><tspan x="60.36%" class="c-0">─</tspan><tspan x="61.261%" class="c-0">─</tspan><tspan x="62.162%" class="c-0">─</tspan><tspan x="63.063%" class="c-0">─</tspan><tspan x="63.964%" class="c-0">─</tspan><tspan x="64.865%" class="c-0">─</tspan><tspan x="65.766%" class="c-0">─</tspan><tspan x="66.667%" class="c-0">─</tspan><tspan x="67.568%" class="c-0">─</tspan><tspan x="68.468%" class="c-0">─</tspan><tspan x="69.369%" class="c-0">─</tspan><tspan x="70.27%" class="c-0">─</tspan><tspan x="71.171%" class="c-0">─</tspan><tspan x="72.072%" class="c-0">─</tspan><tspan x="72.973%" class="c-0">─</tspan><tspan x="73.874%" class="c-0">─</tspan><tspan x="74.775%" class="c-0">─</tspan><tspan x="75.676%" class="c-0">─</tspan><tspan x="76.577%" class="c-0">─</tspan><tspan x="77.477%" class="c-0">─</tspan><tspan x="78.378%" class="c-0">┘</tspan> </tspan> <tspan y="59.459%"> </tspan> <tspan y="62.162%"> </tspan> <tspan y="64.865%"> </tspan> <tspan y="67.568%"> </tspan> <tspan y="70.27%"> </tspan> <tspan y="72.973%"> </tspan> <tspan y="75.676%"> </tspan> <tspan y="78.378%"> </tspan> <tspan y="81.081%"> </tspan> <tspan y="83.784%"> </tspan> <tspan y="86.486%"> </tspan></text><g transform="translate(-50 -50)"><svg width="100" height="100" x="50%" y="50%"><svg xmlns="http://www.w3.org/2000/svg" version="1.1" viewBox="0 0 866.025 866.025"><defs><mask id="small-triangle-mask"><rect width="100%" height="100%" fill="#fff"/><polygon fill="#000" points="508.013 433.013 208.013 259.808 208.013 606.218"/></mask></defs><polygon fill="#fff" points="808.013 433.013 58.013 0 58.013 866.025" mask="url(#small-triangle-mask)"/><polyline stroke="#fff" stroke-width="90" points="481.218 333.013 134.808 533.013"/></svg></svg></g></svg></svg>